<?xml version="1.0" encoding="utf-8"?>
<!-- Generator: Adobe Illustrator 25.2.0, SVG Export Plug-In . SVG Version: 6.00 Build 0)  -->
<svg version="1.1" id="Calque_1" xmlns="http://www.w3.org/2000/svg" xmlns:xlink="http://www.w3.org/1999/xlink" x="0px" y="0px"
	 viewBox="0 0 595.3 841.9" style="enable-background:new 0 0 595.3 841.9;" xml:space="preserve">
<style type="text/css">
	.st0{fill:#FFFFFF;}
</style>
<g>
	<path class="st0" d="M462.6,410.5c-0.7-38.7-18-79.8-53.1-112.7c-31.9-29.9-70.2-44.9-113.8-44.8c-45.5,0.1-85.1,16.2-117.4,48.4
		c-32.3,32.1-49,71.4-49.4,117c-0.9,94.1,74.5,167,163.6,168.4C388,588.4,462.7,511.6,462.6,410.5z"/>
	<path d="M462.6,410.5c0.1,101.1-74.6,177.9-170.1,176.3c-89.1-1.5-164.5-74.3-163.6-168.4c0.4-45.6,17.1-84.9,49.4-117
		c32.4-32.1,71.9-48.3,117.4-48.4c43.6-0.1,81.9,15,113.8,44.8C444.6,330.7,461.9,371.8,462.6,410.5z M403.9,420.4
		c0-6.7,0-13.3,0-20c0-11.4-0.1-22.7,0-34.1c0.1-4.9-5.1-9.3-10.1-7c-2,0.9-3.7,2.4-5.5,3.8c-12.7,9.8-25.3,19.6-38,29.4
		c-10,7.8-19.9,15.6-29.8,23.3c-7.9,6.2-15.9,12.4-23.9,18.6c-0.8,0.6-1.4,0.8-2.2,0c-1-0.9-2.1-1.8-3.2-2.6
		c-11-8.6-22-17.1-33-25.6c-9.3-7.3-18.7-14.6-28-21.8c-10.1-7.9-20.2-15.7-30.3-23.6c-2.7-2.1-5.5-2.8-8.6-1.2
		c-2.8,1.5-4.1,4-4.1,7.1c0,6.3,0,12.6,0,18.9c0,29.5,0,59,0,88.6c0,2.9,1,5.2,3.2,6.9c1.4,1.1,2.7,2.2,4.1,3.3
		c10.3,8.5,20.6,17,31,25.4c10.3,8.5,20.7,16.9,31,25.3c11.2,9.2,22.4,18.4,33.6,27.6c4,3.3,7.1,3.2,11.2-0.2
		c5.7-4.7,11.4-9.4,17.1-14c12-9.8,24-19.5,35.9-29.3c15.4-12.6,30.7-25.2,46.1-37.8c2.4-2,3.5-4.3,3.5-7.3
		C403.9,456.1,403.9,438.2,403.9,420.4z M217.6,319c-4.6,0-8.1,3.9-7.4,8.5c0.4,2.6,2.2,4.2,4,5.8c6.9,5.8,13.7,11.7,20.5,17.5
		c2.5,2.1,6.6,2,9.1-0.1c3.9-3.2,3.6-8.5-0.4-11.9c-6.4-5.4-12.7-10.9-19.1-16.4C222.3,320.7,220.4,318.9,217.6,319z M344.8,344.8
		c0,3.2,1.3,5.5,4,6.8c2.9,1.3,5.7,1.1,8.3-1.1c4.8-4.1,9.6-8.1,14.3-12.2c2.6-2.2,5.3-4.4,7.8-6.8c3-3.1,2.8-7.4-0.2-10.4
		c-2.6-2.7-7.4-2.5-10.4,0.1c-6.9,6-13.9,12-20.9,17.9C345.9,340.6,344.9,342.5,344.8,344.8z M303.1,310.7c0-4.3,0-8.6,0-12.9
		c0-4.3-3.3-7.8-7.4-7.9c-3.9,0-7.4,3.5-7.4,7.8c0,8.6-0.1,17.3,0.1,25.9c0,1.8,0.9,3.8,2.1,5.2c2.1,2.5,5.5,3.1,8.2,1.8
		c2.9-1.4,4.4-3.8,4.4-7.1C303.1,319.3,303.1,315,303.1,310.7z"/>
	<path class="st0" d="M403.9,420.4c0,17.8,0,35.7,0,53.5c0,3.1-1.1,5.4-3.5,7.3c-15.4,12.6-30.7,25.2-46.1,37.8
		c-12,9.8-24,19.5-35.9,29.3c-5.7,4.7-11.4,9.3-17.1,14c-4.1,3.4-7.1,3.5-11.2,0.2c-11.2-9.2-22.4-18.4-33.6-27.6
		c-10.3-8.5-20.7-16.9-31-25.3c-10.3-8.5-20.6-16.9-31-25.4c-1.4-1.1-2.7-2.2-4.1-3.3c-2.2-1.8-3.2-4.1-3.2-6.9c0-29.5,0-59,0-88.6
		c0-6.3,0-12.6,0-18.9c0-3.2,1.3-5.7,4.1-7.1c3.1-1.6,5.9-0.9,8.6,1.2c10.1,7.9,20.2,15.8,30.3,23.6c9.3,7.3,18.7,14.6,28,21.8
		c11,8.6,22,17.1,33,25.6c1.1,0.9,2.2,1.7,3.2,2.6c0.8,0.7,1.4,0.6,2.2,0c7.9-6.2,15.9-12.4,23.9-18.6c9.9-7.8,19.8-15.6,29.8-23.3
		c12.6-9.8,25.3-19.6,38-29.4c1.8-1.4,3.5-2.9,5.5-3.8c5-2.3,10.2,2.1,10.1,7c-0.1,11.4,0,22.7,0,34.1
		C403.9,407.1,403.9,413.7,403.9,420.4z M206.3,474.9c29.9,24.5,59.5,48.8,89.4,73.2c29.8-24.4,59.5-48.8,89.4-73.2
		c-8-5.6-16.7-9.1-25.8-11.7c-9.7-2.8-19.5-4.8-29.6-5.6c-8.5-0.7-17-1.5-25.4-1.7c-13.4-0.3-26.8-0.5-40.2,1.4
		c-6,0.9-12.1,1.4-18.1,2.6c-6.9,1.5-13.7,3.3-20.4,5.4C218.8,467.4,212.3,470.5,206.3,474.9z M202.3,381.2c0,26.4,0,52.3,0,78.3
		c0.2,0,0.4,0.1,0.5,0c0.8-0.4,1.6-0.9,2.3-1.3c9.8-5.3,20.2-8.8,31-11.3c12-2.8,24.3-4.5,36.6-5.2c2-0.1,4-0.3,6.5-0.6
		C253.4,421,227.9,401.2,202.3,381.2z M389.1,381.1c-25.7,20-51.2,39.9-77,60c26.9,1.7,53.1,5.2,77,18.6
		C389.1,433.4,389.1,407.4,389.1,381.1z"/>
	<path class="st0" d="M217.6,319c2.9,0,4.8,1.8,6.7,3.5c6.4,5.5,12.7,11,19.1,16.4c4,3.4,4.2,8.7,0.4,11.9c-2.5,2.1-6.6,2.2-9.1,0.1
		c-6.9-5.8-13.7-11.7-20.5-17.5c-1.9-1.6-3.6-3.2-4-5.8C209.5,322.9,212.9,318.9,217.6,319z"/>
	<path class="st0" d="M344.8,344.8c0.1-2.3,1-4.2,2.9-5.8c7-5.9,14-11.9,20.9-17.9c3-2.6,7.8-2.8,10.4-0.1c3,3,3.2,7.4,0.2,10.4
		c-2.4,2.4-5.1,4.6-7.8,6.8c-4.8,4.1-9.6,8.1-14.3,12.2c-2.5,2.2-5.4,2.5-8.3,1.1C346.1,350.3,344.9,347.9,344.8,344.8z"/>
	<path class="st0" d="M303.1,310.7c0,4.3,0,8.6,0,12.9c0,3.3-1.5,5.7-4.4,7.1c-2.8,1.3-6.1,0.7-8.2-1.8c-1.1-1.4-2-3.4-2.1-5.2
		c-0.2-8.6-0.1-17.3-0.1-25.9c0-4.3,3.5-7.9,7.4-7.8c4,0,7.3,3.6,7.4,7.9C303.1,302.1,303.1,306.4,303.1,310.7z"/>
	<path d="M206.3,474.9c6.1-4.4,12.5-7.5,19.3-9.6c6.7-2.1,13.5-4,20.4-5.4c5.9-1.3,12-1.8,18.1-2.6c13.3-1.9,26.8-1.7,40.2-1.4
		c8.5,0.2,17,1,25.4,1.7c10.1,0.8,19.9,2.9,29.6,5.6c9.1,2.6,17.8,6.1,25.8,11.7c-29.9,24.5-59.6,48.8-89.4,73.2
		C265.8,523.6,236.1,499.3,206.3,474.9z"/>
	<path d="M202.3,381.2c25.7,20,51.1,39.8,76.9,59.9c-2.4,0.2-4.4,0.4-6.5,0.6c-12.4,0.7-24.6,2.4-36.6,5.2
		c-10.8,2.5-21.2,6.1-31,11.3c-0.8,0.4-1.6,0.9-2.3,1.3c-0.1,0-0.2,0-0.5,0C202.3,433.5,202.3,407.5,202.3,381.2z"/>
	<path d="M389.1,381.1c0,26.3,0,52.3,0,78.6c-23.9-13.4-50-16.9-77-18.6C337.9,421,363.4,401.2,389.1,381.1z"/>
</g>
</svg>
